<svg id="app_server_svg__Layer_1" xmlns="http://www.w3.org/2000/svg" viewBox="0 0 65 64.9"><style>.app_server_svg__st1{fill:#fff}</style><ellipse transform="rotate(-.19 32.514 32.441)" cx="32.5" cy="32.5" rx="32.5" ry="32.5" fill="#eabe1b" stroke="none"/><path class="app_server_svg__st1" stroke="none"  d="M47.8 56.6H18.6V56 11.7c0-1.7 1.4-3.1 3.1-3.1h22.9c1.7 0 3.1 1.4 3.1 3.1V56l.1.6zm-1.7-1.7v-.5-43c0-.8-.3-1.1-1.2-1.1H21.6c-.7 0-1.2.5-1.2 1.2v43.3l25.7.1z"/><path class="app_server_svg__st1" stroke="none" d="M44.3 27.5H22.1v-5.1h22.3v5.1zm-20.5-1.7h18.9V24H23.8v1.8zM22.1 34.3v-5.1h22.3v5.1H22.1zm2.5-1.7h18v-1.7h-18v1.7zM22.1 42v-5.1h22.3V42H22.1zm2.5-1.7h18v-1.7h-18v1.7zM44.3 14.6v5.1H22.1v-5.1h22.2zM24.6 18h18v-1.7h-18V18z"/></svg>
