<svg contentScriptType="text/ecmascript" baseProfile="full" viewBox="0 0 299.442 299.636" xmlns="http://www.w3.org/2000/svg"><path fill="#325c80" d="M150.385 299.636C64.714 299.636 0 228.692 0 150.45 0 60.69 74.632 0 149.23 0c89.207 0 150.212 73.662 150.212 148.637 0 91.638-75.258 150.999-149.057 150.999z"/><path d="M200.456 206.557c17.576-.44 32.993-11.385 38.998-31.406 4.828-15.504-.944-29.427-12.223-40.826-3.783-3.397-8.927-6.68-17.44-9.683-.44-9.31-1.83-15.532-4.916-22.575-8.583-18.629-29.567-28.377-43.243-27.912-12.027 1.175-32.055 5.964-42.98 26.508-3.045 5.931-5.178 12.023-6.472 25.341-7.022-1.025-14.06-2.105-20.697-1.976-13.372.435-38.84 13.432-38.133 42.743 1.542 19.638 19.336 38.598 41.06 39.786zm-110.638 11.78c-18.025 0-47.866-17.782-47.866-51.435 0-28.084 12.49-42.543 33.17-51.435 10.848-4.186 12.779-4.97 26.739-3.472 5.829-28.381 27.284-47.089 58.249-49.444 17.16-.722 34.35 7.016 45.334 18.594 10.822 12.602 14.276 24.48 15.387 34.358 20.24 11.767 32.873 25.23 31.89 52.255 0 19.731-15.266 46.46-44.287 50.579z" fill="#fff"/></svg>
