<svg xmlns="http://www.w3.org/2000/svg" viewBox="0 0 59.6 59.5"><ellipse cx="29.8" cy="29.8" rx="29.8" ry="29.8" fill="#00000" stroke="none"/><path d="M29.8 33.8c-1 1.1-2.1 2.1-3 3.1-.1.1-.1.5 0 .7 1.5 5 .1 9.4-4.2 12.3-2.8 1.9-6.5 2.2-9.6.8-5.3-2.2-7.8-8.3-5.5-13.6.6-1.4 1.4-2.6 2.5-3.6 1.9-1.8 4.5-2.8 7.1-2.7 1.8 0 3.7.5 5.2 1.4 1.1.9 2.2 1.9 3.2 3 .2.2.3.4.4.6 1-1 2.1-1.9 3.1-2.9.1-.2.2-.5.2-.7v-3.4c-1.4-.4-2.7-.8-4-1.4-2.8-1.3-4.9-3.8-5.5-6.8-1.3-5.6 2.1-11.1 7.6-12.5s11.1 2.1 12.5 7.6-2.1 11.3-7.7 12.6c-.4.1-.9.2-1.3.2-.3.1-.5.3-.5.5-.1 1.1-.1 2.2 0 3.3.1.3.2.6.5.8.8 1 1.7 1.9 2.6 2.8 1-1.1 1.9-2 2.8-2.8 1.9-1.7 4.5-2.5 7.1-2.3 4.5.2 8.4 3.4 9.5 7.8 1.2 5.6-2.4 11.1-8 12.3s-11.1-2.4-12.3-8c0-.2-.1-.4-.1-.5-.2-1.6 0-3.3.6-4.8.2-.3.1-.8-.2-1-1.1-.8-2-1.8-3-2.8zm6.1-8.7c2.9-2.4 3.9-6.4 2.7-9.9-1.3-3.8-5-6.4-9.1-6.2-4 .2-7.4 2.9-8.5 6.8-.9 3.3.3 7.6 2.5 9.1.3-1.1.4-2.5 1.1-3.4s1.9-1.4 2.9-2c-1.6-1.9-1.7-3.9-.3-5.3 1.4-1.5 3.7-1.5 5.2-.1.6.6 1 1.3 1.1 2.1.2 1.4-.4 2.7-1.5 3.6 3 .4 4.2 2.2 3.9 5.3zm-21 17.5c-1.9-2.2-2-4.2-.4-5.7 1.4-1.3 3.5-1.4 5-.1 1.7 1.4 1.6 3.3-.2 5.9 3 .4 4.2 2.3 3.9 5.3 2.8-2.2 3.9-6.6 2.5-10.1-1.7-4.8-7.1-7.3-11.9-5.5-3.1 1.1-5.4 3.8-5.9 7.1-.6 3 .8 7.3 3 8.5-.4-3.1.9-5 4-5.4zm25.6.2c-1.8-2.2-2-4.2-.5-5.7 1.3-1.4 3.5-1.5 5-.3 1.7 1.4 1.7 3.3-.1 5.9 1.2.3 2.5.6 3.1 1.8.4 1.1.8 2.2 1 3.4 2.5-1.9 3.6-6.2 2.3-9.7-1.7-4.8-7-7.3-11.8-5.6-2.9 1-5 3.4-5.8 6.3-.9 3.4.4 7.6 2.8 9.1-.3-2.9.9-4.8 4-5.2zm7.2 4.8c0-2.2-.6-3.2-2.5-3.6-1.8-.4-3.6-.4-5.3.1-1.2.2-2.2 1.2-2.2 2.4-.1.6-.1 1.2 0 1.8 0 .4.3.8.6 1a8.8 8.8 0 0 0 7.9.5c1.4-.5 1.4-.6 1.5-2.2zM17 43.5c-.9.1-1.8.2-2.6.3-1.5.1-2.6 1.5-2.4 3v.1c-.1.5-.1.9 0 1.4.1.4.3.7.6.9 2.1 1.2 4.7 1.5 7.1.8 2.3-.7 2.6-1.1 2.3-3.6 0-1.2-.9-2.3-2.1-2.5-1-.2-2-.3-2.9-.4zm12.8-22.8v.1h-1.4c-2.6.1-3.6 1.1-3.6 3.7v.8c0 .4.2.8.6 1 2.1 1.1 4.6 1.4 6.9.7 2.4-.7 2.6-1 2.4-3.5 0-1.3-1-2.5-2.3-2.6-.8-.1-1.7-.1-2.6-.2zM16.9 37c-1.4 0-2.5 1.1-2.5 2.5s1.1 2.6 2.6 2.6c1.4 0 2.5-1.1 2.5-2.6 0-1.4-1.1-2.5-2.6-2.5.1 0 .1 0 0 0zm25.7.1c-1.4 0-2.6 1.1-2.6 2.5v.1c.1 1.4 1.3 2.5 2.7 2.4C44 42 45 41 45.1 39.7c0-1.4-1.1-2.6-2.5-2.6zM32.3 16.6c0-1.4-1.1-2.5-2.6-2.5-1.4 0-2.5 1.1-2.5 2.5s1.1 2.5 2.5 2.5c1.5.1 2.6-1.1 2.6-2.5z" fill="#ffffff" stroke="none"/></svg>
